<svg width="64" height="64" viewBox="0 0 64 64" fill="none" xmlns="http://www.w3.org/2000/svg">
  <defs>
    <linearGradient id="bg" x1="10" y1="8" x2="54" y2="58" gradientUnits="userSpaceOnUse">
      <stop stop-color="#0D1725" />
      <stop offset="1" stop-color="#03060D" />
    </linearGradient>
    <linearGradient id="ring" x1="12" y1="9" x2="56" y2="55" gradientUnits="userSpaceOnUse">
      <stop stop-color="#E5C97A" />
      <stop offset="1" stop-color="#9A7A32" />
    </linearGradient>
  </defs>
  <rect x="3.5" y="3.5" width="57" height="57" rx="18" fill="url(#bg)" />
  <rect x="3.5" y="3.5" width="57" height="57" rx="18" stroke="url(#ring)" />
  <circle cx="32" cy="19" r="7.5" fill="#07101B" stroke="#F5F7FB" stroke-width="2.25" />
  <path d="M32 12.5V25.5" stroke="#F5F7FB" stroke-width="1.8" stroke-linecap="round" />
  <path
    d="M27 17.25C28.4 14.95 30.05 13.8 32 13.8C33.95 13.8 35.6 14.95 37 17.25"
    stroke="#C9A84C"
    stroke-width="1.7"
    stroke-linecap="round"
  />
  <path
    d="M26 27.5V35.5C26 40.35 28.7 43.5 32 43.5C35.3 43.5 38 40.35 38 35.5V27.5"
    stroke="#F5F7FB"
    stroke-width="4.8"
    stroke-linecap="round"
    stroke-linejoin="round"
  />
  <path
    d="M21.75 40.5C24.95 43.9 28.35 45.6 32 45.6C35.65 45.6 39.05 43.9 42.25 40.5"
    stroke="#C9A84C"
    stroke-width="4.2"
    stroke-linecap="round"
  />
  <rect x="18" y="48" width="8" height="4" rx="2" fill="#2F6FED" />
  <rect x="28" y="48" width="8" height="4" rx="2" fill="#C9A84C" />
  <rect x="38" y="48" width="8" height="4" rx="2" fill="#E64D5E" />
</svg>
